<svg data-v-6805eed4="" version="1.0"
    xmlns="http://www.w3.org/2000/svg"
    xmlns:xlink="http://www.w3.org/1999/xlink" width="100%" height="100%" viewBox="0 0 340.000000 250.000000" >
    <g fill="#f05674" transform="translate(82.875,74.34331512469572)">
        <g transform="translate(57.125,0)">
            <g>
                <rect fill="#f05674" fill-opacity="0" stroke-width="2" x="0" y="0" width="60" height="36.74961872270575" ></rect>
                <svg x="0" y="0" width="60" height="36.74961872270575" style="overflow: visible;">
                    <svg
                        xmlns="http://www.w3.org/2000/svg" viewBox="0.023092104122042656 -0.03984662517905235 1214.7691650390625 744.0399169921875">
                        <g style="isolation:isolate">
                            <g>
                                <path d="M1118.61 744a96.25 96.25 0 0 1-87.38-55.8L775.66 136.74A96.24 96.24 0 1 1 950.3 55.8l255.57 551.43A96.29 96.29 0 0 1 1118.61 744z" fill="#36b0e2" style="mix-blend-mode:multiply"></path>
                                <path d="M607.35 744a96.29 96.29 0 0 1-87.26-136.74L775.66 55.8a96.24 96.24 0 1 1 174.64 80.94L694.73 688.16A96.26 96.26 0 0 1 607.35 744z" fill="#f05674" style="mix-blend-mode:multiply"></path>
                                <path d="M607.47 744a96.25 96.25 0 0 1-87.38-55.8L264.52 136.74A96.24 96.24 0 1 1 439.16 55.8l255.57 551.42A96.29 96.29 0 0 1 607.47 744z" fill="#f7a400" style="mix-blend-mode:multiply"></path>
                                <path d="M96.2 744A96.29 96.29 0 0 1 8.95 607.22L264.52 55.8a96.24 96.24 0 1 1 174.64 80.94L183.59 688.16A96.26 96.26 0 0 1 96.2 744z" fill="#00cc8c" style="mix-blend-mode:multiply"></path>
                            </g>
                        </g>
                    </svg>
                </svg>
                <!---->
            </g>
        </g>
        <g transform="translate(0,43.74961853027344)">
            <g transform="translate(0,0)">
                <g transform="scale(1)">
                    <g>
                        <path d="M19.82-11.68L19.82-11.68Q20.14-11.14 20.37-10.54 20.61-9.94 20.84-9.34L20.84-9.34Q21.06-9.97 21.31-10.54 21.56-11.12 21.87-11.7L21.87-11.7 32.81-31.57Q33.1-32.09 33.42-32.2 33.74-32.32 34.32-32.32L34.32-32.32 37.55-32.32 37.55 0 33.71 0 33.71-23.75Q33.71-24.22 33.74-24.76 33.76-25.3 33.8-25.87L33.8-25.87 22.73-5.66Q22.17-4.65 21.15-4.65L21.15-4.65 20.52-4.65Q19.51-4.65 18.94-5.66L18.94-5.66 7.62-25.93Q7.69-25.35 7.72-24.78 7.76-24.22 7.76-23.75L7.76-23.75 7.76 0 3.92 0 3.92-32.32 7.15-32.32Q7.73-32.32 8.05-32.2 8.37-32.09 8.66-31.57L8.66-31.57 19.82-11.68ZM61.56-14.61L61.56 0 59.78 0Q59.2 0 58.83-0.18 58.47-0.36 58.36-0.95L58.36-0.95 57.91-3.07Q57.01-2.26 56.15-1.61 55.29-0.97 54.35-0.53 53.4-0.09 52.33 0.14 51.26 0.36 49.95 0.36L49.95 0.36Q48.62 0.36 47.46-0.01 46.3-0.38 45.44-1.13 44.58-1.87 44.08-3.01 43.57-4.15 43.57-5.71L43.57-5.71Q43.57-7.06 44.31-8.31 45.06-9.56 46.71-10.53 48.37-11.5 51.05-12.12 53.74-12.74 57.62-12.83L57.62-12.83 57.62-14.61Q57.62-17.27 56.48-18.64 55.34-20 53.11-20L53.11-20Q51.64-20 50.64-19.63 49.63-19.26 48.9-18.8 48.17-18.33 47.64-17.96 47.11-17.59 46.59-17.59L46.59-17.59Q46.18-17.59 45.88-17.8 45.58-18.02 45.39-18.33L45.39-18.33 44.67-19.62Q46.57-21.45 48.75-22.35 50.94-23.25 53.6-23.25L53.6-23.25Q55.52-23.25 57.01-22.62 58.5-21.99 59.51-20.86 60.53-19.73 61.04-18.13 61.56-16.53 61.56-14.61L61.56-14.61ZM51.15-2.46L51.15-2.46Q52.2-2.46 53.08-2.67 53.96-2.89 54.74-3.28 55.52-3.68 56.23-4.24 56.94-4.8 57.62-5.52L57.62-5.52 57.62-10.28Q54.84-10.19 52.9-9.84 50.96-9.49 49.75-8.93 48.53-8.37 47.98-7.6 47.42-6.83 47.42-5.89L47.42-5.89Q47.42-4.98 47.72-4.33 48.01-3.68 48.51-3.26 49-2.84 49.68-2.65 50.36-2.46 51.15-2.46ZM71.67 7.73L67.65 7.73 67.65-22.84 70.04-22.84Q70.9-22.84 71.13-22.01L71.13-22.01 71.46-19.3Q72.93-21.08 74.81-22.17 76.7-23.25 79.15-23.25L79.15-23.25Q81.12-23.25 82.72-22.49 84.32-21.74 85.44-20.26 86.57-18.78 87.18-16.6 87.79-14.41 87.79-11.57L87.79-11.57Q87.79-9.04 87.11-6.87 86.44-4.69 85.17-3.1 83.91-1.51 82.07-0.6 80.24 0.32 77.94 0.32L77.94 0.32Q75.82 0.32 74.32-0.38 72.82-1.08 71.67-2.37L71.67-2.37 71.67 7.73ZM77.82-20L77.82-20Q75.86-20 74.38-19.1 72.91-18.2 71.67-16.55L71.67-16.55 71.67-5.5Q72.77-4.01 74.09-3.41 75.41-2.8 77.03-2.8L77.03-2.8Q80.21-2.8 81.93-5.07 83.64-7.35 83.64-11.57L83.64-11.57Q83.64-13.8 83.25-15.4 82.85-17 82.11-18.03 81.36-19.06 80.28-19.53 79.2-20 77.82-20ZM106.85-32.32L119.77 0 116.38 0Q115.8 0 115.44-0.29 115.08-0.59 114.9-1.04L114.9-1.04 111.87-8.84 97.37-8.84 94.35-1.04Q94.19-0.63 93.81-0.32 93.43 0 92.86 0L92.86 0 89.48 0 102.4-32.32 106.85-32.32ZM103.67-25.12L98.59-12 110.66-12 105.58-25.14Q105.09-26.36 104.61-28.19L104.61-28.19Q104.36-27.26 104.13-26.49 103.89-25.71 103.67-25.12L103.67-25.12ZM135.28 0L123.85 0 123.85-32.32 134.15-32.32Q137.13-32.32 139.28-31.73 141.44-31.14 142.83-30.06 144.21-28.98 144.88-27.41 145.54-25.84 145.54-23.88L145.54-23.88Q145.54-22.69 145.17-21.58 144.8-20.48 144.04-19.53 143.29-18.58 142.15-17.84 141.01-17.09 139.48-16.62L139.48-16.62Q143.02-15.92 144.82-14.07 146.62-12.22 146.62-9.2L146.62-9.2Q146.62-7.15 145.87-5.46 145.11-3.77 143.66-2.55 142.2-1.33 140.1-0.67 137.99 0 135.28 0L135.28 0ZM135.19-14.73L128.22-14.73 128.22-3.47 135.21-3.47Q137.09-3.47 138.43-3.9 139.77-4.33 140.64-5.11 141.51-5.89 141.91-6.96 142.32-8.03 142.32-9.31L142.32-9.31Q142.32-11.82 140.55-13.27 138.78-14.73 135.19-14.73L135.19-14.73ZM128.22-28.86L128.22-17.84 134-17.84Q135.85-17.84 137.2-18.24 138.55-18.65 139.44-19.37 140.33-20.09 140.76-21.12 141.19-22.14 141.19-23.36L141.19-23.36Q141.19-26.2 139.48-27.53 137.76-28.86 134.15-28.86L134.15-28.86 128.22-28.86ZM175.81-6.68L175.81-6.68Q176.17-6.68 176.46-6.38L176.46-6.38 178.17-4.51Q176.19-2.21 173.36-0.92 170.53 0.36 166.54 0.36L166.54 0.36Q163.04 0.36 160.2-0.85 157.36-2.05 155.35-4.23 153.35-6.4 152.24-9.45 151.14-12.49 151.14-16.15L151.14-16.15Q151.14-19.8 152.32-22.84 153.5-25.89 155.65-28.08 157.79-30.26 160.78-31.47 163.76-32.68 167.37-32.68L167.37-32.68Q170.93-32.68 173.52-31.57 176.1-30.47 178.11-28.57L178.11-28.57 176.69-26.56Q176.53-26.34 176.32-26.19 176.12-26.05 175.74-26.05L175.74-26.05Q175.44-26.05 175.12-26.26 174.79-26.47 174.34-26.79 173.89-27.11 173.28-27.47 172.67-27.83 171.84-28.14 171-28.46 169.9-28.67 168.79-28.89 167.35-28.89L167.35-28.89Q164.76-28.89 162.6-28 160.45-27.11 158.89-25.46 157.34-23.81 156.47-21.45 155.6-19.08 155.6-16.15L155.6-16.15Q155.6-13.12 156.47-10.76 157.34-8.39 158.84-6.75 160.34-5.12 162.39-4.26 164.44-3.41 166.81-3.41L166.81-3.41Q168.25-3.41 169.4-3.57 170.55-3.74 171.53-4.1 172.51-4.47 173.36-5.02 174.2-5.57 175.06-6.34L175.06-6.34Q175.44-6.68 175.81-6.68Z" transform="translate(-3.9200000762939453, 32.68000030517578)"></path>
                    </g>
                </g>
            </g>
            <g fill="#f05674" transform="translate(39.56999969482422,46.40999984741211)">
                <!---->
                <!---->
                <g transform="scale(1, 1)">
                    <g transform="scale(1)">
                        <path d="M3.14-9.66L3.14-9.66Q4.08-9.56 4.36-9.42L4.36-9.42Q4.36-9.38 4.31-9.28L4.31-9.28Q4.08-8.91 4.08-8.30L4.08-8.30L4.08-7.03L5.06-7.03Q5.81-7.03 6.33-7.13L6.33-7.13Q6.42-7.13 6.42-7.13L6.42-7.13L6.42-6.19Q6.42-6.19 6.28-6.19L6.28-6.19Q5.67-6.28 5.02-6.28L5.02-6.28L4.08-6.28L4.08-5.72Q4.08-5.06 4.17-4.59L4.17-4.59Q4.17-4.50 4.17-4.45L4.17-4.45L3.14-4.45Q3.14-4.50 3.14-4.64L3.14-4.64Q3.23-5.20 3.23-5.72L3.23-5.72L3.23-6.23Q2.39-4.83 1.13-3.89L1.13-3.89Q0.89-4.27 0.38-4.64L0.38-4.64Q0.38-4.64 0.47-4.69L0.47-4.69Q1.83-5.20 2.48-6.23L2.48-6.23L2.16-6.23Q1.55-6.23 0.84-6.14L0.84-6.14Q0.75-6.14 0.70-6.14L0.70-6.14L0.70-7.13Q0.75-7.13 0.89-7.13L0.89-7.13Q1.59-7.03 2.16-7.03L2.16-7.03L3.23-7.03L3.23-8.30Q3.23-8.95 3.14-9.52L3.14-9.52Q3.14-9.61 3.14-9.66ZM7.55-9.42L7.55-9.42Q8.95-9.23 8.95-9.05L8.95-9.05Q8.95-9 8.91-8.86L8.91-8.86Q8.53-8.34 8.20-7.31L8.20-7.31L10.03-7.31Q10.64-7.31 11.20-7.41L11.20-7.41Q11.30-7.41 11.34-7.41L11.34-7.41L11.34-6.42Q11.30-6.42 11.16-6.47L11.16-6.47Q10.73-6.52 10.36-6.52L10.36-6.52Q10.13-2.48 9.23-1.17L9.23-1.17Q10.17-0.28 11.44 0L11.44 0Q11.02 0.42 10.69 1.03L10.69 1.03Q9.80 0.52 8.67-0.52L8.67-0.52Q7.69 0.42 6 1.13L6 1.13Q5.77 0.80 5.16 0.28L5.16 0.28Q6.94-0.09 8.16-1.27L8.16-1.27Q7.55-2.58 7.27-4.73L7.27-4.73Q7.08-4.41 6.89-3.98L6.89-3.98Q6.75-4.22 6.09-4.45L6.09-4.45Q7.27-6.33 7.55-9.42ZM1.17-8.86L2.11-9.05Q2.34-8.67 2.67-7.55L2.67-7.55L1.78-7.36Q1.50-8.39 1.17-8.86L1.17-8.86ZM5.25-9.05L5.25-9.05Q6.09-8.72 6.19-8.58L6.19-8.58Q6.19-8.58 6.14-8.53L6.14-8.53Q5.81-8.34 5.34-7.27L5.34-7.27L4.64-7.45Q5.16-8.58 5.25-9.05ZM9.38-6.56L9.38-6.56L7.97-6.56Q7.73-5.91 7.41-5.06L7.41-5.06L8.25-5.06Q8.25-5.06 8.25-5.02L8.25-5.02Q8.02-3.84 8.67-1.97L8.67-1.97Q9.33-3.61 9.38-6.56ZM4.27-5.44L4.97-6Q5.53-5.58 6.09-4.92L6.09-4.92L5.44-4.31Q4.83-5.06 4.27-5.44L4.27-5.44ZM2.91-4.36L2.91-4.36Q3.98-4.17 4.03-4.03L4.03-4.03Q4.03-3.94 3.94-3.80L3.94-3.80Q3.75-3.61 3.61-3.38L3.61-3.38L4.92-3.38Q5.16-3.38 5.81-3.42L5.81-3.42Q6.19-3.47 6.42-3.47L6.42-3.47Q5.91-2.25 5.06-1.13L5.06-1.13Q5.53-0.94 6.14-0.70L6.14-0.70L5.48 0Q5.11-0.14 4.45-0.42L4.45-0.42Q3.47 0.42 1.13 0.98L1.13 0.98Q0.84 0.42 0.33 0L0.33 0Q2.53-0.05 3.52-0.75L3.52-0.75Q2.30-1.08 1.50-1.17L1.50-1.17Q1.50-1.22 1.78-1.69L1.78-1.69Q2.16-2.34 2.30-2.63L2.30-2.63L1.97-2.63Q1.41-2.63 0.84-2.53L0.84-2.53Q0.70-2.53 0.66-2.53L0.66-2.53L0.66-3.47Q0.70-3.47 0.84-3.47L0.84-3.47Q1.50-3.38 2.02-3.38L2.02-3.38L2.63-3.38Q2.81-3.75 2.91-4.36ZM5.06-2.67L5.06-2.67L3.23-2.67Q3-2.30 2.72-1.73L2.72-1.73Q2.86-1.69 3.23-1.64L3.23-1.64Q3.98-1.45 4.22-1.41L4.22-1.41Q4.73-1.92 5.06-2.67ZM17.16-9.47L18.42-9.61Q18.52-9.28 18.70-8.48L18.70-8.48Q18.75-8.25 18.80-8.16L18.80-8.16L20.67-8.16Q21.70-8.16 22.69-8.30L22.69-8.30Q22.73-8.30 22.78-8.30L22.78-8.30Q22.69-8.06 22.69-7.22L22.69-7.22L22.69-7.03Q22.69-6.38 22.78-5.77L22.78-5.77L21.52-5.77Q21.52-5.86 21.56-6L21.56-6Q21.61-6.66 21.61-7.08L21.61-7.08L21.61-7.31L14.16-7.31L14.16-7.03Q14.16-6.19 14.25-5.72L14.25-5.72L13.03-5.72Q13.13-6.33 13.13-7.03L13.13-7.03L13.13-7.17Q13.13-7.78 13.03-8.20L13.03-8.20Q13.03-8.20 13.03-8.25L13.03-8.25Q13.88-8.16 14.72-8.16L14.72-8.16L17.58-8.16Q17.44-8.95 17.16-9.47L17.16-9.47ZM14.72-5.25L14.72-6.19Q15.66-6.09 16.59-6.09L16.59-6.09L19.64-6.09Q20.16-6.09 20.86-6.19L20.86-6.19Q21.05-6.19 21.09-6.19L21.09-6.19L21.09-5.16Q20.48-5.11 18.66-3.75L18.66-3.75L18.66-3.38L21.42-3.38Q22.59-3.38 23.11-3.47L23.11-3.47L23.11-2.39Q22.69-2.48 21.42-2.48L21.42-2.48L18.66-2.48L18.66 0Q18.94 0.84 16.55 1.03L16.55 1.03Q16.55 0.47 16.08-0.09L16.08-0.09Q17.81 0.09 17.63-0.56L17.63-0.56L17.63-2.48L14.39-2.48Q13.31-2.48 12.70-2.39L12.70-2.39L12.70-3.42Q13.31-3.33 14.39-3.33L14.39-3.33L17.63-3.33L17.63-4.22Q18.33-4.50 19.55-5.20L19.55-5.20Q19.64-5.30 19.73-5.34L19.73-5.34L16.64-5.34Q15.28-5.34 14.72-5.25L14.72-5.25ZM28.92-9.47L30.09-9.75Q30.38-8.86 30.47-8.53L30.47-8.53L33.19-8.53Q33.89-8.53 34.97-8.67L34.97-8.67L34.97-7.59Q34.55-7.69 33.14-7.69L33.14-7.69L31.50-7.69L31.50-6.38Q31.50-5.11 31.59-4.83L31.59-4.83L30.52-4.83Q30.61-5.53 30.61-6.28L30.61-6.28L30.61-7.69L29.06-7.69L29.06-6.33Q29.02-5.06 29.16-4.78L29.16-4.78L28.03-4.78Q28.13-5.16 28.13-6.38L28.13-6.38L28.13-7.69L26.48-7.69Q25.31-7.69 24.89-7.59L24.89-7.59L24.89-8.63Q25.59-8.53 26.48-8.53L26.48-8.53L29.44-8.53Q29.39-8.77 28.92-9.47L28.92-9.47ZM26.67-7.03L26.67-7.03Q27.61-6.56 27.61-6.38L27.61-6.38Q27.56-6.33 27.42-6.28L27.42-6.28Q27.14-6.09 27-5.95L27-5.95Q26.72-5.67 26.16-5.06L26.16-5.06Q25.64-4.50 25.45-4.31L25.45-4.31Q25.13-4.69 24.56-5.02L24.56-5.02Q25.83-5.72 26.67-7.03ZM32.02-6.42L32.77-7.03Q33.70-6.56 35.11-5.44L35.11-5.44L34.27-4.73Q32.91-5.91 32.02-6.42L32.02-6.42ZM26.39-3.38L26.39-4.41Q27.19-4.31 28.22-4.31L28.22-4.31L31.45-4.31Q33.28-4.31 33.75-4.41L33.75-4.41L33.75-3.47Q32.48-3.33 30.52-2.25L30.52-2.25L30.52-1.97L32.91-1.97Q33.61-1.97 35.06-2.11L35.06-2.11L35.06-1.03Q34.03-1.17 32.95-1.13L32.95-1.13L30.52-1.13L30.52 0.28Q30.61 1.36 28.69 1.22L28.69 1.22Q28.59 0.56 28.27 0.09L28.27 0.09Q29.48 0.38 29.48-0.14L29.48-0.14L29.48-1.13L26.63-1.13Q25.22-1.13 24.84-1.03L24.84-1.03L24.84-2.06Q25.17-1.97 26.63-1.97L26.63-1.97L29.48-1.97L29.48-2.63Q29.48-2.63 29.91-2.81L29.91-2.81Q30.75-3.19 31.41-3.47L31.41-3.47L28.27-3.47Q27.42-3.47 26.39-3.38L26.39-3.38ZM41.67-9.52L41.67-9.52Q42.89-9.52 43.13-9.33L43.13-9.33Q43.13-9.28 43.03-9.19L43.03-9.19Q42.75-8.77 42.75-8.25L42.75-8.25L42.75-6.61L44.77-6.61Q45.89-6.61 46.45-6.70L46.45-6.70Q46.55-6.70 46.59-6.70L46.59-6.70L46.59-5.67Q46.59-5.67 46.50-5.67L46.50-5.67Q45.75-5.77 44.77-5.77L44.77-5.77L42.75-5.77L42.75-3.61L44.34-3.61Q45.33-3.61 45.89-3.70L45.89-3.70Q45.98-3.70 45.98-3.70L45.98-3.70L45.98-2.63Q45.98-2.63 45.89-2.63L45.89-2.63Q45.33-2.72 44.34-2.72L44.34-2.72L42.75-2.72L42.75-0.19L45.38-0.19Q46.27-0.19 46.97-0.28L46.97-0.28Q47.11-0.28 47.11-0.28L47.11-0.28L47.11 0.75Q47.06 0.75 46.97 0.75L46.97 0.75Q46.36 0.66 45.38 0.66L45.38 0.66L38.67 0.66Q37.83 0.66 37.03 0.75L37.03 0.75Q36.89 0.75 36.89 0.75L36.89 0.75L36.89-0.28Q36.94-0.28 37.08-0.28L37.08-0.28Q37.83-0.19 38.67-0.19L38.67-0.19L41.77-0.19L41.77-2.72L40.31-2.72Q39.47-2.72 38.77-2.63L38.77-2.63Q38.63-2.63 38.63-2.63L38.63-2.63L38.63-3.70Q38.63-3.70 38.77-3.70L38.77-3.70Q39.52-3.61 40.31-3.61L40.31-3.61L41.77-3.61L41.77-5.77L38.95-5.77Q38.25-4.55 37.88-3.94L37.88-3.94Q37.59-4.08 37.08-4.22L37.08-4.22Q36.84-4.31 36.84-4.31L36.84-4.31Q38.48-6.05 38.91-8.63L38.91-8.63Q40.17-8.34 40.27-8.11L40.27-8.11Q40.27-8.06 40.13-7.92L40.13-7.92Q39.70-7.45 39.38-6.61L39.38-6.61L41.77-6.61L41.77-8.34Q41.77-8.86 41.67-9.38L41.67-9.38Q41.67-9.47 41.67-9.52ZM55.36-9.84L55.36-9.84Q55.55-9.80 55.83-9.70L55.83-9.70Q56.48-9.52 56.44-9.47L56.44-9.47Q56.44-9.42 56.25-9.23L56.25-9.23Q55.97-8.95 55.73-8.72L55.73-8.72L58.22-8.72Q58.97-8.72 59.34-8.77L59.34-8.77L59.34-7.92Q59.02-7.97 58.22-7.97L58.22-7.97L57.05-7.97Q57.33-7.17 57.47-6.80L57.47-6.80L56.39-6.61Q56.39-6.70 56.39-6.84L56.39-6.84Q56.34-7.45 56.20-7.97L56.20-7.97L55.22-7.97Q54.89-7.59 54.61-7.13L54.61-7.13Q54.28-7.41 53.67-7.41L53.67-7.41Q53.58-7.41 53.58-7.41L53.58-7.41Q54.61-8.30 55.36-9.84ZM50.86-9.75L50.86-9.75Q51.14-9.66 51.56-9.56L51.56-9.56Q52.03-9.47 52.03-9.42L52.03-9.42Q52.03-9.33 51.84-9.14L51.84-9.14Q51.56-8.91 51.38-8.72L51.38-8.72L52.88-8.72Q53.91-8.77 53.91-8.77L53.91-8.77L53.91-7.92Q53.63-7.97 52.88-7.97L52.88-7.97L52.22-7.97Q52.27-7.97 52.41-7.55L52.41-7.55Q52.55-7.13 52.69-6.84L52.69-6.84L51.66-6.66Q51.61-7.22 51.33-7.97L51.33-7.97L50.77-7.97Q50.63-7.83 50.39-7.50L50.39-7.50Q49.88-6.94 49.59-6.61L49.59-6.61Q49.17-6.98 48.61-7.08L48.61-7.08Q49.92-8.16 50.86-9.75ZM50.44-4.92L50.44-4.92Q50.63-4.83 51.80-4.83L51.80-4.83L55.92-4.83Q56.77-4.83 57.09-4.92L57.09-4.92Q57.05-4.55 57.05-4.08L57.05-4.08L57.05-3.23Q57.05-2.39 57.09-2.39L57.09-2.39Q57.09-2.44 55.92-2.44L55.92-2.44L51.42-2.44L51.42-1.83L55.88-1.83Q56.81-1.83 57.52-1.92L57.52-1.92L57.42-0.98L57.42 0.19Q57.42 0.80 57.47 1.27L57.47 1.27L56.34 1.27L56.39 0.56L51.42 0.56L51.47 1.31L50.48 1.31Q50.53 0.70 50.53 0L50.53 0L50.53-3.84Q50.53-4.36 50.44-4.92ZM56.11-4.13L51.42-4.13L51.42-3.19L56.11-3.19L56.11-4.13ZM56.39-1.08L51.42-1.08L51.42-0.05L56.39-0.05L56.39-1.08ZM53.16-7.03L54.33-7.22Q54.47-6.89 54.66-6.28L54.66-6.28L57.80-6.28Q58.45-6.28 58.92-6.33L58.92-6.33Q59.06-6.33 59.11-6.33L59.11-6.33Q59.11-6.33 59.06-5.63L59.06-5.63L59.06-5.16Q59.06-4.36 59.11-4.13L59.11-4.13L58.03-4.13L58.08-4.78L58.08-5.48L49.83-5.48L49.83-4.88L49.88-4.22L48.80-4.22Q48.84-4.64 48.84-5.11L48.84-5.11L48.84-5.67Q48.84-6.28 48.84-6.33L48.84-6.33Q49.64-6.28 50.16-6.28L50.16-6.28L53.63-6.28Q53.44-6.61 53.25-6.89L53.25-6.89Q53.16-6.98 53.16-7.03L53.16-7.03ZM66.28-8.91L66.28-8.91L69.33-8.91Q70.73-8.95 70.73-8.95L70.73-8.95Q70.64-8.72 70.64-7.83L70.64-7.83L70.64-4.92Q70.64-4.03 70.73-3.56L70.73-3.56Q70.69-3.56 70.59-3.56L70.59-3.56Q70.13-3.61 69.47-3.61L69.47-3.61L68.25-3.61L68.25-2.34L69.14-2.34Q70.64-2.39 70.64-2.39L70.64-2.39L70.64-1.45Q70.17-1.55 69.19-1.55L69.19-1.55L68.25-1.55L68.25-0.28L70.22-0.28Q70.97-0.28 71.30-0.38L71.30-0.38L71.30 0.47Q71.06 0.42 70.22 0.42L70.22 0.42L65.44 0.42Q64.45 0.42 63.89 0.47L63.89 0.47L63.89-0.33Q64.36-0.28 65.39-0.28L65.39-0.28L67.31-0.28L67.31-1.55L66.42-1.55Q65.48-1.55 65.02-1.45L65.02-1.45L65.02-2.39Q65.39-2.34 66.38-2.34L66.38-2.34L67.31-2.34L67.31-3.61L66.14-3.61Q65.53-3.61 65.02-3.56L65.02-3.56Q64.97-3.56 64.92-3.56L64.92-3.56Q64.97-3.56 64.97-4.92L64.97-4.92L64.97-7.83Q64.97-8.25 64.92-8.81L64.92-8.81Q64.92-8.91 64.92-8.95L64.92-8.95Q65.77-8.91 66.28-8.91ZM60.70-7.59L60.70-8.53Q60.98-8.48 61.78-8.48L61.78-8.48L63.28-8.48Q64.45-8.53 64.45-8.53L64.45-8.53L64.45-7.59Q64.17-7.64 63.42-7.64L63.42-7.64L63-7.64L63-5.20L63.28-5.20Q63.84-5.20 64.27-5.25L64.27-5.25L64.27-4.31Q63.84-4.36 63.33-4.36L63.33-4.36L63-4.36L63-1.69Q63.52-1.83 64.27-2.20L64.27-2.20L64.31-1.13Q63.33-0.94 60.80 0.05L60.80 0.05L60.52-1.03Q61.17-1.13 62.11-1.41L62.11-1.41L62.11-4.36L61.69-4.36Q61.22-4.36 60.75-4.31L60.75-4.31L60.75-5.25Q61.17-5.20 61.69-5.20L61.69-5.20L62.11-5.20L62.11-7.64L61.64-7.64Q60.98-7.64 60.70-7.59L60.70-7.59ZM67.31-6.61L67.31-8.11L65.86-8.11L65.86-6.61L67.31-6.61ZM69.75-8.11L68.25-8.11L68.25-6.61L69.75-6.61L69.75-8.11ZM67.31-4.41L67.31-5.91L65.86-5.91L65.86-4.41L67.31-4.41ZM69.75-5.91L68.25-5.91L68.25-4.41L69.75-4.41L69.75-5.91ZM81.80-9.23L81.80-9.23Q81.84-9.14 81.98-8.95L81.98-8.95Q82.55-8.11 82.45-8.11L82.45-8.11Q81.19-8.11 77.72-7.78L77.72-7.78Q78.42-7.50 78.56-7.36L78.56-7.36Q78.56-7.31 78.28-7.22L78.28-7.22Q77.86-7.08 77.63-6.89L77.63-6.89Q77.34-6.70 76.55-6.19L76.55-6.19Q76.03-5.86 75.70-5.67L75.70-5.67L78.80-5.86Q79.92-6.70 80.44-7.27L80.44-7.27Q81.33-6.70 81.47-6.52L81.47-6.52Q81.47-6.47 81.28-6.38L81.28-6.38Q80.86-6.19 80.48-5.95L80.48-5.95Q80.44-5.91 80.30-5.81L80.30-5.81Q77.91-4.27 75.98-3.52L75.98-3.52L80.81-3.70Q79.78-4.41 79.73-4.41L79.73-4.41L80.48-5.11Q82.17-3.84 83.02-3L83.02-3L82.22-2.25Q81.94-2.67 81.52-3L81.52-3L78.75-2.86L78.75-0.14Q79.13 0.80 76.88 0.89L76.88 0.89Q76.78 0.33 76.59-0.05L76.59-0.05Q76.55-0.14 76.55-0.14L76.55-0.14Q77.91 0 77.77-0.61L77.77-0.61L77.77-2.81L75.61-2.72Q75.47-2.72 75.23-2.67L75.23-2.67Q74.48-2.63 74.11-2.53L74.11-2.53L73.78-3.56Q74.86-3.61 77.72-5.16L77.72-5.16Q75.38-5.02 74.77-4.78L74.77-4.78L74.20-5.77Q75.84-6.47 77.16-7.73L77.16-7.73L73.92-7.36Q73.83-7.69 73.64-8.06L73.64-8.06Q73.50-8.30 73.41-8.44L73.41-8.44Q77.77-8.44 81.80-9.23ZM79.78-1.50L80.53-2.20Q81.09-1.83 82.55-0.70L82.55-0.70Q82.88-0.42 83.02-0.33L83.02-0.33L82.13 0.42Q80.91-0.84 79.78-1.50L79.78-1.50ZM75.61-2.20L75.61-2.20L76.50-1.59Q74.86 0 74.20 0.47L74.20 0.47Q73.83 0 73.27-0.14L73.27-0.14Q74.63-1.03 75.61-2.20ZM91.13-9.61L91.97-9.84Q92.34-8.95 92.53-8.34L92.53-8.34L91.69-8.11Q91.64-8.72 91.13-9.61L91.13-9.61ZM86.39-9.52L86.39-9.52Q86.58-9.42 86.91-9.33L86.91-9.33Q87.56-9.05 87.56-8.95L87.56-8.95Q87.61-8.86 87.28-8.58L87.28-8.58Q87.09-8.44 87.05-8.39L87.05-8.39Q86.48-7.55 85.55-5.95L85.55-5.95L87.33-6L87.84-7.03Q88.03-6.94 88.36-6.75L88.36-6.75Q88.92-6.52 88.88-6.42L88.88-6.42Q88.88-6.38 88.73-6.28L88.73-6.28Q88.45-6.05 88.27-5.77L88.27-5.77Q87.84-5.11 86.67-3.56L86.67-3.56Q86.25-3.09 86.06-2.81L86.06-2.81Q86.39-2.91 87-3L87-3Q87.98-3.23 88.69-3.38L88.69-3.38L88.50-2.44Q86.34-2.16 85.13-1.78L85.13-1.78L84.75-2.86Q85.78-3.52 86.91-5.30L86.91-5.30L85.78-5.25Q85.31-5.20 84.84-5.06L84.84-5.06L84.47-6.05Q85.55-7.13 86.39-9.52ZM95.30-8.02L95.30-8.02L95.30-7.03Q94.69-7.13 93.98-7.13L93.98-7.13L90.05-7.13Q89.44-7.13 88.69-7.03L88.69-7.03L88.69-8.02Q89.34-7.92 90.14-7.92L90.14-7.92L93.98-7.92Q94.50-7.92 95.30-8.02ZM88.88-1.36L88.88-1.36L88.78-0.38Q86.39-0.05 84.80 0.38L84.80 0.38L84.52-0.56Q86.34-0.75 88.88-1.36ZM90.98-7.03L90.98-7.03Q91.31-6.80 91.64-6.61L91.64-6.61Q91.83-6.52 91.92-6.47L91.92-6.47Q91.92-6.42 91.73-6.28L91.73-6.28Q90.89-5.58 89.95-4.55L89.95-4.55L93.38-4.69Q92.86-5.44 92.53-5.67L92.53-5.67L93.33-6.23Q93.42-6.09 93.80-5.67L93.80-5.67Q94.97-4.22 95.20-3.89L95.20-3.89L94.27-3.23Q94.22-3.56 93.89-3.98L93.89-3.98L92.81-3.98L92.81-0.33Q92.77 0.09 93.28 0.05L93.28 0.05L93.75 0.05Q94.36 0.19 94.45-1.03L94.45-1.03Q94.73-0.66 95.44-0.42L95.44-0.42Q95.16 0.98 94.27 0.94L94.27 0.94L92.72 0.94Q91.97 0.94 91.97 0.05L91.97 0.05L91.97-3.89L91.13-3.89Q91.13-1.50 90.66-0.56L90.66-0.56Q90.33 0.33 88.92 1.22L88.92 1.22Q88.59 0.94 87.98 0.66L87.98 0.66Q87.84 0.56 87.84 0.56L87.84 0.56Q89.39 0 89.77-0.80L89.77-0.80Q90.23-1.59 90.23-3.80L90.23-3.80Q90.19-3.80 90.09-3.80L90.09-3.80Q89.77-3.75 89.11-3.61L89.11-3.61L88.73-4.64Q89.48-5.02 90.98-7.03Z" transform="translate(-0.328125, 9.84375)"></path>
                    </g>
                </g>
            </g>
        </g>
    </g>
    <defs ></defs>
</svg>
